HIERARCHY
ROOT hip
{
	OFFSET 0.000000 0.000000 0.000000 
	CHANNELS 6 Xposition Yposition Zposition Xrotation Zrotation Yrotation
	JOINT abdomen
	{
		OFFSET 0.000000 3.402643 0.000000 
		CHANNELS 3 Xrotation Zrotation Yrotation
		JOINT chest
		{
			OFFSET 0.000000 8.438565 -0.680529 
			CHANNELS 3 Xrotation Zrotation Yrotation
			JOINT neck
			{
				OFFSET 0.000000 10.207942 -0.272212 
				CHANNELS 3 Xrotation Zrotation Yrotation
				JOINT head
				{
					OFFSET 0.000000 3.130431 0.000000 
					CHANNELS 3 Xrotation Zrotation Yrotation
					End Site
					{
						OFFSET 0.000000 3.130435 0.000000 
					}
				}
			}
			JOINT lCollar
			{
				OFFSET 3.470700 6.669187 -0.816635 
				CHANNELS 3 Yrotation Zrotation Xrotation
				JOINT lShldr
				{
					OFFSET 3.198488 0.000000 0.000000 
					CHANNELS 3 Zrotation Yrotation Xrotation
					JOINT lForeArm
					{
						OFFSET 10.139888 0.000000 0.000000 
						CHANNELS 3 Yrotation Zrotation Xrotation
						JOINT lHand
						{
							OFFSET 8.370511 0.000000 0.000000 
							CHANNELS 3 Zrotation Yrotation Xrotation
							End Site
							{
								OFFSET 4.083176 0.000000 0.000000 
							}
						}
					}
				}
			}
			JOINT rCollar
			{
				OFFSET -3.470700 6.669187 -0.816635 
				CHANNELS 3 Yrotation Zrotation Xrotation
				JOINT rShldr
				{
					OFFSET -3.198488 0.000000 0.000000 
					CHANNELS 3 Zrotation Yrotation Xrotation
					JOINT rForeArm
					{
						OFFSET -10.139888 0.000000 0.000000 
						CHANNELS 3 Yrotation Zrotation Xrotation
						JOINT rHand
						{
							OFFSET -8.370511 0.000000 0.000000 
							CHANNELS 3 Zrotation Yrotation Xrotation
							End Site
							{
								OFFSET -4.083176 0.000000 0.000000 
							}
						}
					}
				}
			}
		}
	}
	JOINT lThigh
	{
		OFFSET 5.308129 -1.633274 1.361059 
		CHANNELS 3 Xrotation Zrotation Yrotation
		JOINT lShin
		{
			OFFSET -2.041588 -20.007561 0.000000 
			CHANNELS 3 Xrotation Zrotation Yrotation
			JOINT lFoot
			{
				OFFSET 0.000000 -19.190928 -1.224953 
				CHANNELS 3 Xrotation Yrotation Zrotation
				End Site
				{
					OFFSET 0.000000 -2.449906 4.627600 
				}
			}
		}
	}
	JOINT rThigh
	{
		OFFSET -5.308129 -1.633274 1.361059 
		CHANNELS 3 Xrotation Zrotation Yrotation
		JOINT rShin
		{
			OFFSET 2.041588 -20.007561 0.000000 
			CHANNELS 3 Xrotation Zrotation Yrotation
			JOINT rFoot
			{
				OFFSET 0.000000 -19.190928 -1.224953 
				CHANNELS 3 Xrotation Yrotation Zrotation
				End Site
				{
					OFFSET 0.000000 -2.449906 4.627600 
				}
			}
		}
	}
}
MOTION
Frames: 15
Frame Time: 0.033333
-0.404122 47.822586 -6.947411 0.410620 -2.423183 -8.084150 42.368881 -7.215551 22.159010 -0.019573 -3.750000 -0.008488 -8.544922 -0.001505 -0.009645 -7.065804 -2.483209 -14.717272 2.000000 -2.000000 0.000000 -81.365570 -41.753670 4.500422 -82.006752 -0.508335 8.892392 -39.530605 -13.642064 -116.230911 -2.000000 2.000000 0.000000 51.157478 60.347515 38.987820 84.112144 0.507046 8.921434 30.495981 -6.304687 -66.167740 -40.677853 5.828816 -0.281461 43.901756 -0.542975 -3.223467 -3.129674 5.061761 -3.874498 6.532516 -3.778073 5.060600 98.751526 -3.154508 4.067336 -2.043723 0.208876 7.316648 
-0.399113 46.224899 -13.485662 0.342027 -1.846679 -5.939057 46.199490 -6.801825 17.210489 -0.019558 -2.998047 -0.008744 -8.544922 -0.001505 -0.009645 -11.439672 -2.092690 -12.120594 2.000000 -2.000000 0.000000 -79.664566 -44.729134 4.470041 -84.383224 -0.510331 8.919695 -39.530605 -13.642064 -116.230911 -2.000000 2.000000 0.000000 46.682808 61.434391 33.911037 84.932854 0.512531 8.933463 29.251333 -5.618405 -64.903709 -39.955864 3.749010 0.566989 58.284790 0.306141 -3.782923 -16.905867 4.789789 -1.658789 -4.544155 -3.355188 3.912517 111.792587 -4.022510 3.766311 4.516584 1.352219 5.874236 
-0.399113 45.178017 -20.028990 0.293053 -1.201773 -3.629394 48.404854 -5.659091 12.494302 -0.019547 -2.275390 -0.008990 -8.544922 -0.001505 -0.009645 -13.530910 -1.248923 -9.406014 2.000000 -2.000000 0.000000 -77.941910 -45.866928 4.968858 -86.916367 -0.517418 8.948528 -39.530605 -13.642064 -116.230911 -2.000000 2.000000 0.000000 44.203888 60.974197 30.791349 85.822533 0.508388 8.937965 27.925129 -4.855427 -63.563358 -30.080696 2.830852 0.985375 59.824528 0.394956 -3.842659 -29.172274 3.124814 -0.413121 -15.622109 -3.163458 2.739270 116.052986 -4.286073 3.620908 6.476572 1.139240 4.704584 
-0.399113 45.027878 -26.572317 0.253921 -0.556850 -1.262327 47.685406 -3.660299 7.983419 -0.019539 -1.582031 -0.009226 -8.544922 -0.001505 -0.009645 -11.318539 -0.238763 -6.359107 2.000000 -2.000000 0.000000 -76.801102 -43.953072 6.224273 -89.539589 -0.517914 8.976848 -39.530605 -13.642064 -116.230911 -2.000000 2.000000 0.000000 45.541466 58.382893 32.191593 86.736313 0.513028 8.955944 26.590956 -4.043114 -62.209732 -16.849411 2.352412 1.116882 55.838562 0.142224 -3.698658 -39.100613 1.185229 0.233325 -27.084597 -3.173121 1.526860 118.056961 -4.403186 3.547086 6.992886 0.772175 3.516452 
-0.404122 45.739090 -33.120647 0.263674 0.097847 1.123513 45.202633 -1.440817 3.563118 -0.019534 -0.917969 -0.009453 -8.544922 -0.001505 -0.009645 -6.797122 0.320268 -3.095625 2.000000 -2.000000 0.000000 -76.444496 -40.265835 8.148259 -92.156509 -0.529654 9.008366 -39.530605 -13.642064 -116.230911 -2.000000 2.000000 0.000000 47.857922 54.569180 35.335983 87.631813 0.511304 8.959675 25.272701 -3.192762 -60.870338 3.928820 3.266893 0.812273 37.012486 -0.905855 -2.843341 -39.078861 0.681728 -0.833754 -36.881725 -3.486083 0.457732 116.414635 -4.305631 3.609652 6.631096 0.402582 2.568979 
-0.399113 46.815842 -39.658844 0.283243 0.723230 3.421664 43.153023 0.324908 -0.634754 -0.019532 -0.283203 -0.009669 -8.544922 -0.001505 -0.009645 -3.818812 0.486570 -0.096803 2.000000 -2.000000 0.000000 -76.299553 -37.100170 10.173079 -94.720840 -0.535317 9.025899 -39.530605 -13.642064 -116.230911 -2.000000 2.000000 0.000000 48.742344 51.026634 37.075432 88.525635 0.518069 8.973527 24.015688 -2.350788 -59.599514 37.054676 4.404274 0.285000 -4.507595 -1.911398 -0.119356 -23.263756 1.115357 -2.226382 -42.947918 -4.120781 -0.355903 109.751122 -3.885894 3.834204 5.968799 0.093674 2.139850 
-0.399113 48.143124 -46.202171 0.341934 1.319283 5.574495 41.961296 1.715162 -4.938664 -0.019532 0.351561 -0.019651 -8.544922 -0.001505 -0.009645 -3.116236 0.746080 2.756324 2.000000 -2.000000 0.000000 -75.956306 -34.816399 11.801115 -97.094963 -0.542063 9.053709 -39.530605 -13.642064 -116.230911 -2.000000 2.000000 0.000000 48.861351 48.483734 37.871754 89.346947 0.512930 8.977621 22.859959 -1.518337 -58.423347 37.695850 4.716643 -0.765738 5.318240 -1.866021 -0.811651 -18.638243 2.021504 -2.393068 -45.215229 -4.950253 -0.965705 97.474571 -3.036798 4.091650 5.076818 -0.212883 2.292390 
-0.399113 49.525536 -52.745506 0.400682 1.846933 7.513209 40.661350 3.005512 -9.544290 -0.019534 0.986326 -0.019867 -8.544922 -0.001505 -0.009645 -2.785433 1.129985 5.750403 2.000000 -2.000000 0.000000 -75.324043 -32.339432 12.449408 -99.227707 -0.547023 9.075250 -39.530605 -13.642064 -116.230911 -2.000000 2.000000 0.000000 49.432495 46.569107 39.471115 90.096558 0.520450 8.989956 21.840170 -0.763401 -57.377796 35.984612 4.941030 -1.922192 19.406925 -1.582173 -1.812487 -14.924895 2.859274 -3.103264 -45.485729 -5.957175 -1.544334 81.223579 -1.882969 4.177921 3.806983 -0.606003 2.928593 
-0.404121 50.822689 -59.293701 0.469247 2.286628 9.140173 39.408669 4.138361 -14.100030 -0.019539 1.621092 -0.020084 -8.544922 -0.001505 -0.009645 -2.778010 1.618396 8.651008 2.000000 -2.000000 0.000000 -74.658348 -29.944382 12.381489 -101.013023 -0.553288 9.087394 -39.530605 -13.642064 -116.230911 -2.000000 2.000000 0.000000 50.215458 45.316738 41.523888 90.721558 0.521578 8.995629 20.986992 -0.119817 -56.513870 32.539619 5.009211 -3.134583 36.210758 -0.933575 -2.830918 -11.794622 3.350829 -4.406061 -44.377483 -6.971951 -2.059571 62.955254 -0.606529 3.861131 2.337736 -1.284793 3.968507 
-0.394104 51.859436 -65.827026 0.518287 2.638371 10.405119 38.407726 5.109050 -18.254801 -0.019546 2.207029 -0.020283 -8.544922 -0.001505 -0.009645 -3.075010 2.190672 11.249577 2.000000 -2.000000 0.000000 -73.974358 -27.894663 11.696139 -102.413208 -0.554911 9.100667 -39.530605 -13.642064 -116.230911 -2.000000 2.000000 0.000000 51.108608 44.752140 43.669392 91.199570 0.517307 8.990639 20.338175 0.387099 -55.857292 28.001591 4.929809 -4.340390 54.132790 0.025029 -3.639119 -8.957844 3.139979 -6.056249 -42.602249 -7.899761 -2.549563 44.616360 0.488275 3.188711 0.922761 -2.427942 5.152750 
-0.399113 52.390373 -72.375359 0.547735 2.843563 11.219004 37.831276 5.926370 -21.616032 -0.019553 2.685545 -0.020446 -8.544922 -0.001505 -0.009645 -3.656826 2.749219 13.342009 2.000000 -2.000000 0.000000 -73.286308 -26.494205 10.490993 -103.302544 -0.560222 9.116776 -39.530605 -13.642064 -116.230911 -2.000000 2.000000 0.000000 52.046669 44.952324 45.705940 91.503075 0.527527 9.000072 19.918158 0.732367 -55.424519 22.999714 4.714260 -5.376867 71.684036 1.184779 -4.110780 -6.164885 2.095939 -7.615207 -40.848335 -8.632924 -2.853726 28.141989 1.277860 2.317639 -0.310241 -3.971037 6.075828 
-0.399113 51.864437 -78.918686 0.586901 2.931477 11.505054 37.900974 6.642585 -23.789156 -0.019558 2.998045 -0.020553 -8.544922 -0.001505 -0.009645 -4.581186 3.186369 14.736548 2.000000 -2.000000 0.000000 -72.572342 -26.026873 8.813539 -103.624237 -0.564205 9.111885 -39.530605 -13.642064 -116.230911 -2.000000 2.000000 0.000000 52.943348 45.979084 47.307938 91.620880 0.524017 8.999449 19.775667 0.849548 -55.284348 18.171394 4.413060 -6.198497 87.313133 2.305645 -4.238873 -3.139060 0.474843 -8.647833 -39.772842 -9.071957 -2.961854 15.462577 1.669261 1.507763 -1.207375 -5.483176 6.395564 
-0.394104 48.173252 -85.456886 0.557499 2.824005 11.082575 40.600132 7.348596 -22.720905 -0.019556 2.880858 -0.020513 -8.544922 -0.001505 -0.009645 -7.644782 3.301706 14.297006 2.000000 -2.000000 0.000000 -71.861916 -28.901154 7.361774 -103.135414 -0.561029 9.110453 -39.530605 -13.642064 -116.230911 -2.000000 2.000000 0.000000 51.759617 48.557323 45.205086 91.457481 0.527073 8.992220 19.984552 0.681074 -55.501511 10.964558 3.972959 -6.037141 100.674019 3.231413 -4.070725 0.927108 -1.193831 -8.153964 -39.559090 -6.074017 0.340546 39.092857 0.765357 2.930793 0.560761 -4.864372 4.095444 
-0.394104 46.705704 -92.000206 0.498667 2.501581 9.904963 45.370743 7.499222 -18.335268 -0.019547 2.324217 -0.020323 -8.544922 -0.001505 -0.009645 -12.242476 2.785174 11.922603 2.000000 -2.000000 0.000000 -71.465729 -34.533073 6.456049 -101.846504 -0.560583 9.097980 -39.530605 -13.642064 -116.230911 -2.000000 2.000000 0.000000 47.896198 52.061871 39.175259 91.009109 0.521992 8.990252 20.590113 0.195981 -56.115498 0.918259 3.504574 -4.972615 108.804214 3.785491 -3.883404 4.170000 -1.655215 -6.851567 -39.050892 -3.603259 -0.656621 56.433502 -0.213249 3.689687 -15.967925 -4.797196 1.470623 
-0.399113 45.734089 -98.548538 0.420282 2.022809 8.130391 48.426762 6.524844 -13.397346 -0.019539 1.640623 -0.020090 -8.544922 -0.001505 -0.009645 -14.709099 1.776802 9.031986 2.000000 -2.000000 0.000000 -71.689339 -38.712418 5.531621 -99.896233 -0.544978 9.080687 -39.530605 -13.642064 -116.230911 -2.000000 2.000000 0.000000 45.087753 54.655476 34.989807 90.329498 0.521810 8.988729 21.519176 -0.529813 -57.054108 -10.898500 3.122581 -3.669651 112.799423 4.047783 -3.746651 5.439430 -1.323460 -5.600804 -27.373985 -2.470036 -1.158915 56.775314 -0.224541 3.689741 -28.665854 -3.073872 0.024950 
